Input #0, mov,mp4,m4a,3gp,3g2,mj2, from '/home/hbattu/projects/huberman-gpt/huberman-audio/mp3/tmp2gprlkby.mp4':
  Metadata:
    major_brand     : dash
    minor_version   : 0
    compatible_brands: iso6mp41
    creation_time   : 2022-07-30T06:05:56.000000Z
  Duration: 02:19:40.82, start: 0.000000, bitrate: 129 kb/s
    Stream #0:0(eng): Audio: aac (LC) (mp4a / 0x6134706D), 44100 Hz, stereo, fltp, 0 kb/s (default)
    Metadata:
      creation_time   : 2022-07-30T06:05:56.000000Z
      handler_name    : ISO Media file produced by Google Inc.
Stream mapping:
  Stream #0:0 -> #0:0 (aac (native) -> mp3 (libmp3lame))
Press [q] to stop, [?] for help
[graph_0_in_0_0 @ 0x55c4a68c5e40] tb:1/44100 samplefmt:fltp samplerate:44100 chlayout:0x3
Output #0, mp3, to '../huberman-audio/mp3/m_OazsImOiI.mp3':
  Metadata:
    major_brand     : dash
    minor_version   : 0
    compatible_brands: iso6mp41
    TSSE            : Lavf58.29.100
    Stream #0:0(eng): Audio: mp3 (libmp3lame), 44100 Hz, stereo, fltp, delay 1105 (default)
    Metadata:
      creation_time   : 2022-07-30T06:05:56.000000Z
      handler_name    : ISO Media file produced by Google Inc.
      encoder         : Lavc58.54.100 libmp3lame
No more output streams to write to, finishing.
size=  130951kB time=02:19:40.84 bitrate= 128.0kbits/s speed=97.8x    
[AVIOContext @ 0x55c4a67b3900] Statistics: 0 seeks, 172 writeouts
video:0kB audio:130951kB subtitle:0kB other streams:0kB global headers:0kB muxing overhead: 0.000258%
Input file #0 (/home/hbattu/projects/huberman-gpt/huberman-audio/mp3/tmp2gprlkby.mp4):
  Input stream #0:0 (audio): 360932 packets read (134093194 bytes); 360932 frames decoded (369594368 samples); 
  Total: 360932 packets (134093194 bytes) demuxed
Output file #0 (../huberman-audio/mp3/m_OazsImOiI.mp3):
  Output stream #0:0 (audio): 320829 frames encoded (369594368 samples); 320830 packets muxed (134093844 bytes); 
  Total: 320830 packets (134093844 bytes) muxed
[AVIOContext @ 0x55c4a67e23c0] Statistics: 2 seeks, 513 writeouts
[AVIOContext @ 0x55c4a67bc880] Statistics: 135635026 bytes read, 0 seeks
